<svg xmlns="http://www.w3.org/2000/svg" width="60.005" height="60.005" viewBox="0 0 60.005 60.005"><g transform="translate(-1000.212 13.787)"><g transform="translate(1030.215 -13.787) rotate(45)" fill="#1ba2b3" stroke="#2c184a" stroke-width="2"><rect width="42.43" height="42.43" rx="5" stroke="none"/><rect x="1" y="1" width="40.43" height="40.43" rx="4" fill="none"/></g><g transform="translate(1015 -18.584)"><path d="M30.758,33.7l-9.781-7.784a1.568,1.568,0,0,0-2.527,1.213v2.6A1.462,1.462,0,0,1,17.06,31.3H1.516A1.463,1.463,0,0,0,0,32.761v4.094a1.537,1.537,0,0,0,1.516,1.516H17.06a1.4,1.4,0,0,1,1.39,1.491v2.6a1.551,1.551,0,0,0,2.5,1.188l9.756-7.582A1.481,1.481,0,0,0,30.758,33.7Z" fill="#2c184a"/></g></g></svg>