<svg xmlns="http://www.w3.org/2000/svg" width="60" height="60" viewBox="0 0 60 60"><g transform="translate(-690 20)"><g transform="translate(720 -20) rotate(45)" fill="#f8f01e" stroke="#2c184a" stroke-width="2"><rect width="42.426" height="42.426" rx="7" stroke="none"/><rect x="1" y="1" width="40.426" height="40.426" rx="6" fill="none"/></g><g transform="translate(735.327 19.395) rotate(180)"><path d="M30.755,8.111,20.975.328a1.568,1.568,0,0,0-2.527,1.213v2.6a1.462,1.462,0,0,1-1.39,1.567H1.516A1.463,1.463,0,0,0,0,7.176V11.27a1.537,1.537,0,0,0,1.516,1.516H17.058a1.4,1.4,0,0,1,1.39,1.491v2.6a1.551,1.551,0,0,0,2.5,1.188L30.7,10.486A1.48,1.48,0,0,0,30.755,8.111Z" fill="#2c184a"/></g></g></svg>